# Blender3D v249 OBJ File: machineglass.blend
# www.blender3d.org
mtllib machineglass.mtl
v 0.500000 0.500000 1.125000
v 0.500000 0.500000 1.175000
v -0.500000 0.500000 1.175000
v -0.500000 0.500000 1.125000
v 0.500000 6.500000 1.125000
v 0.500000 6.500000 1.175000
v -0.500000 6.500000 1.175000
v -0.500000 6.500000 1.125000
v 4.500000 6.500000 1.175000
v 4.500000 6.500000 1.125000
v 4.500000 0.500000 1.175000
v 4.500000 0.500000 1.125000
v -4.500000 6.500000 1.125000
v -4.500000 6.500000 1.175000
v -4.500000 0.500000 1.125000
v -4.500000 0.500000 1.175000
v -0.500000 9.000000 1.125000
v -0.500000 9.000000 1.175000
v 0.500000 9.000000 1.175000
v 0.500000 9.000000 1.125000
v 0.500000 3.500000 1.175000
v 0.500000 3.500000 1.125000
v -0.500000 3.500000 1.175000
v -0.500000 3.500000 1.125000
v 4.500000 3.500000 1.125000
v 4.500000 3.500000 1.175000
v -4.500000 3.500000 1.125000
v -4.500000 3.500000 1.175000
v -2.500000 0.500000 1.125000
v -2.500000 6.500000 1.125000
v -2.500000 6.500000 1.175000
v -2.500000 0.500000 1.175000
v -2.500000 3.500000 1.125000
v -2.500000 3.500000 1.175000
v 2.500000 6.500000 1.125000
v 2.500000 0.500000 1.125000
v 2.500000 0.500000 1.175000
v 2.500000 6.500000 1.175000
v 2.500000 3.500000 1.125000
v 2.500000 3.500000 1.175000
v 0.500000 5.000000 1.175000
v 0.500000 5.000000 1.125000
v -0.500000 5.000000 1.175000
v -0.500000 5.000000 1.125000
v 4.500000 5.000000 1.125000
v 4.500000 5.000000 1.175000
v -4.500000 5.000000 1.125000
v -4.500000 5.000000 1.175000
v -2.500000 5.000000 1.125000
v -2.500000 5.000000 1.175000
v 2.500000 5.000000 1.125000
v 2.500000 5.000000 1.175000
v 0.500000 2.000000 1.175000
v 0.500000 2.000000 1.125000
v -0.500000 2.000000 1.175000
v -0.500000 2.000000 1.125000
v 4.500000 2.000000 1.125000
v 4.500000 2.000000 1.175000
v -4.500000 2.000000 1.125000
v -4.500000 2.000000 1.175000
v -2.500000 2.000000 1.125000
v -2.500000 2.000000 1.175000
v 2.500000 2.000000 1.125000
v 2.500000 2.000000 1.175000
v -0.500000 7.750000 1.125000
v 0.500000 7.750000 1.125000
v -0.500000 7.750000 1.175000
v 0.500000 7.750000 1.175000
vn 0.000000 -1.000000 0.000000
vn 0.000000 1.000000 0.000000
vn 0.000000 0.000000 1.000000
vn 0.000000 -0.000000 -1.000000
vn 1.000000 0.000000 0.000000
vn -1.000000 0.000000 0.000000
vn -1.000000 -0.000000 -0.000002
vn 1.000000 0.000000 0.000006
usemtl Material
s off
f 1//1 2//1 3//1 4//1
f 20//2 17//2 18//2 19//2
f 8//2 30//2 31//2 7//2
f 30//2 13//2 14//2 31//2
f 3//1 32//1 29//1 4//1
f 32//1 16//1 15//1 29//1
f 6//2 38//2 35//2 5//2
f 38//2 9//2 10//2 35//2
f 1//1 36//1 37//1 2//1
f 36//1 12//1 11//1 37//1
f 21//3 41//3 43//3 23//3
f 41//3 6//3 7//3 43//3
f 5//4 42//4 44//4 8//4
f 42//4 22//4 24//4 44//4
f 25//5 45//5 46//5 26//5
f 45//5 10//5 9//5 46//5
f 28//6 48//6 47//6 27//6
f 48//6 14//6 13//6 47//6
f 33//4 49//4 44//4 24//4
f 49//4 30//4 8//4 44//4
f 27//4 47//4 49//4 33//4
f 47//4 13//4 30//4 49//4
f 31//3 50//3 43//3 7//3
f 50//3 34//3 23//3 43//3
f 14//3 48//3 50//3 31//3
f 48//3 28//3 34//3 50//3
f 35//4 51//4 42//4 5//4
f 51//4 39//4 22//4 42//4
f 10//4 45//4 51//4 35//4
f 45//4 25//4 39//4 51//4
f 40//3 52//3 41//3 21//3
f 52//3 38//3 6//3 41//3
f 26//3 46//3 52//3 40//3
f 46//3 9//3 38//3 52//3
f 2//3 53//3 55//3 3//3
f 53//3 21//3 23//3 55//3
f 22//4 54//4 56//4 24//4
f 54//4 1//4 4//4 56//4
f 12//5 57//5 58//5 11//5
f 57//5 25//5 26//5 58//5
f 16//6 60//6 59//6 15//6
f 60//6 28//6 27//6 59//6
f 29//4 61//4 56//4 4//4
f 61//4 33//4 24//4 56//4
f 15//4 59//4 61//4 29//4
f 59//4 27//4 33//4 61//4
f 34//3 62//3 55//3 23//3
f 62//3 32//3 3//3 55//3
f 28//3 60//3 62//3 34//3
f 60//3 16//3 32//3 62//3
f 39//4 63//4 54//4 22//4
f 1//4 54//4 63//4 36//4
f 25//4 57//4 63//4 39//4
f 57//4 12//4 36//4 63//4
f 37//3 64//3 53//3 2//3
f 64//3 40//3 21//3 53//3
f 11//3 58//3 64//3 37//3
f 58//3 26//3 40//3 64//3
f 8//4 65//4 66//4 5//4
f 65//4 17//4 20//4 66//4
f 7//7 67//7 65//7 8//7
f 67//7 18//7 17//7 65//7
f 6//3 68//3 67//3 7//3
f 68//3 19//3 18//3 67//3
f 5//8 66//8 68//8 6//8
f 66//8 20//8 19//8 68//8
