# Blender3D v249 OBJ File: machine.blend
# www.blender3d.org
mtllib machine.mtl
v -3.500000 2.500000 0.500000
v -3.500000 2.500000 1.500000
v -3.500000 0.500000 1.500000
v -3.500000 0.500000 0.500000
v -2.500000 2.500000 0.500000
v -2.500000 2.500000 1.500000
v -2.500000 0.500000 1.500000
v -2.500000 0.500000 0.500000
v -1.500000 2.500000 0.500000
v -1.500000 2.500000 1.500000
v -1.500000 0.500000 1.500000
v -1.500000 0.500000 0.500000
v 3.500000 2.500000 0.500000
v 3.500000 2.500000 1.500000
v 3.500000 0.500000 1.500000
v 3.500000 0.500000 0.500000
v 2.500000 2.500000 0.500000
v 2.500000 2.500000 1.500000
v 2.500000 0.500000 1.500000
v 2.500000 0.500000 0.500000
v 1.500000 2.500000 0.500000
v 1.500000 2.500000 1.500000
v 1.500000 0.500000 1.500000
v 1.500000 0.500000 0.500000
v 0.500000 2.500000 0.500000
v 0.500000 2.500000 1.500000
v 0.500000 0.500000 1.500000
v 0.500000 0.500000 0.500000
v -0.500000 2.500000 0.500000
v -0.500000 2.500000 1.500000
v -0.500000 0.500000 1.500000
v -0.500000 0.500000 0.500000
vn -1.000000 0.000000 0.000000
usemtl (null)
s off
f 1//1 4//1 3//1 2//1
f 5//1 8//1 7//1 6//1
f 9//1 12//1 11//1 10//1
f 13//1 16//1 15//1 14//1
f 17//1 20//1 19//1 18//1
f 21//1 24//1 23//1 22//1
f 25//1 28//1 27//1 26//1
f 29//1 32//1 31//1 30//1
v -4.500000 0.500000 -0.000000
v -4.500000 6.500000 -0.000000
v -5.000000 -0.000000 -0.000000
v -5.000000 0.000000 1.500000
v -5.000000 7.000000 1.499999
v -5.000000 7.000000 -0.000000
v 0.500000 -0.000000 -0.000000
v 0.500000 0.000000 1.500000
v 5.000000 7.000000 0.000000
v 4.999999 7.000000 1.500000
v 1.000000 7.000000 -0.000000
v 1.000000 7.000000 1.500000
v 0.500000 6.500000 -0.000000
v 5.000000 -0.000000 0.000000
v 5.000000 0.000000 1.500000
v 4.500000 6.500000 0.000000
v 0.500000 0.500000 -0.000000
v 4.500000 0.500000 0.000000
v -0.500000 -0.000000 -0.000000
v -0.500000 0.500000 -0.000000
v -0.500000 0.000000 1.500000
v -1.000000 7.000000 -0.000000
v -1.000000 7.000000 1.500000
v -0.500000 6.500000 -0.000000
v 1.000000 9.000000 -0.000000
v 1.000000 9.000000 1.500000
v -1.000000 9.000000 -0.000000
v -1.000000 9.000000 1.500000
v 0.500000 9.000000 0.500000
v 0.500000 9.000000 1.500000
v -0.500000 9.000000 0.500000
v -0.500000 9.000000 1.500000
v 0.500000 6.500000 0.500000
v 0.500000 6.500000 1.500000
v -0.500000 6.500000 0.500000
v -0.500000 6.500000 1.500000
v 4.500000 6.500000 0.500000
v 4.500000 6.500000 1.500000
v -4.500000 6.500000 0.500000
v -4.500000 6.500000 1.500000
v 4.500000 0.500000 0.500000
v 4.500000 0.500000 1.500000
v -4.500000 0.500000 0.500000
v -4.500000 0.500000 1.500000
v 0.500000 0.500000 0.500000
v 0.500000 0.500000 1.500000
v -0.500000 0.500000 0.500000
v -0.500000 0.500000 1.500000
vn 0.000000 0.000000 -1.000000
vn -0.000001 0.000000 1.000000
vn -0.000000 0.000000 1.000000
vn 0.000000 1.000000 0.000000
vn 0.000000 -1.000000 0.000000
vn 1.000000 0.000000 0.000000
vn 0.000000 0.000000 0.000000
usemtl (null)
s off
f 33//2 34//2 56//2 52//2
f 34//2 33//2 35//2 38//2
f 76//3 72//3 37//3 36//3
f 36//1 37//1 38//1 35//1
f 56//2 34//2 38//2 54//2
f 72//4 68//4 55//4 37//4
f 54//5 38//5 37//5 55//5
f 33//2 52//2 51//2 35//2
f 80//4 76//4 36//4 53//4
f 51//6 53//6 36//6 35//6
f 46//6 47//6 40//6 39//6
f 74//4 78//4 40//4 47//4
f 49//2 50//2 46//2 39//2
f 46//7 41//7 42//7 47//7
f 70//4 74//4 47//4 42//4
f 50//2 48//2 41//2 46//2
f 41//5 43//5 44//5 42//5
f 66//4 70//4 42//4 44//4
f 48//2 45//2 43//2 41//2
f 48//2 50//2 49//2 45//2
f 49//2 39//2 51//2 52//2
f 39//6 40//6 53//6 51//6
f 43//2 45//2 56//2 54//2
f 40//4 78//4 80//4 53//4
f 45//2 49//2 52//2 56//2
f 44//7 43//7 57//7 58//7
f 43//2 54//2 59//2 57//2
f 54//1 55//1 60//1 59//1
f 58//5 57//5 61//5 62//5
f 57//5 59//5 63//5 61//5
f 59//5 60//5 64//5 63//5
f 55//4 68//4 64//4 60//4
f 66//4 44//4 58//4 62//4
f 62//1 61//1 65//1 66//1
f 61//4 63//4 67//4 65//4
f 63//7 64//7 68//7 67//7
f 66//6 65//6 69//6 70//6
f 65//8 67//8 71//8 69//8
f 67//6 68//6 72//6 71//6
f 70//1 69//1 73//1 74//1
f 71//7 72//7 76//7 75//7
f 74//5 73//5 77//5 78//5
f 75//5 76//5 80//5 79//5
f 78//5 77//5 79//5 80//5
f 67//4 71//4 75//4 79//4
f 65//4 67//4 79//4 77//4
f 65//4 77//4 73//4 69//4
