# Blender3D v249 OBJ File: machine2.blend
# www.blender3d.org
mtllib machine.mtl
v -4.400000 0.600000 1.200000
v -4.400000 0.600000 1.350000
v 4.400000 0.600000 1.350000
v 4.400000 0.600000 1.200000
v -5.000000 0.000000 1.200000
v -5.000000 0.000000 1.400000
v 5.000000 0.000000 1.400000
v 5.000000 0.000000 1.200000
v 0.000000 0.600000 1.350000
v 0.000000 0.600000 1.200000
v 0.000000 0.000000 1.400000
v 0.000000 0.000000 1.200000
v -4.750000 0.250001 1.400000
v -4.750000 0.250001 1.200000
v 4.750000 0.250000 1.400000
v 4.750000 0.250000 1.200000
v 0.000000 0.250000 1.400000
v 0.000000 0.250000 1.200000
vn 0.000000 0.000000 1.000000
vn 0.000000 0.141422 0.989949
vn 0.000000 0.141421 0.989949
vn -0.000000 -0.000000 -1.000000
vn 0.000000 1.000000 0.000000
vn 0.707106 0.707107 0.000000
vn 0.707107 0.707107 0.000000
vn 0.000000 -1.000000 0.000000
vn -0.707107 0.707106 0.000000
vn -0.707107 0.707107 0.000000
usemtl (null)
s off
f 13//1 6//1 11//1 17//1
f 2//2 13//2 17//2 9//2
f 17//1 11//1 7//1 15//1
f 9//3 17//3 15//3 3//3
f 14//4 1//4 10//4 18//4
f 5//4 14//4 18//4 12//4
f 18//4 10//4 4//4 16//4
f 12//4 18//4 16//4 8//4
f 3//5 4//5 10//5 9//5
f 3//6 15//6 16//6 4//6
f 7//7 8//7 16//7 15//7
f 7//8 11//8 12//8 8//8
f 5//8 12//8 11//8 6//8
f 5//9 6//9 13//9 14//9
f 1//10 14//10 13//10 2//10
f 10//5 1//5 2//5 9//5
v 4.400000 6.400001 1.200000
v 4.400000 6.400001 1.350000
v 4.400000 0.600000 1.350000
v 4.400000 0.600000 1.200000
v 5.000000 7.000000 1.200000
v 5.000000 7.000000 1.400000
v 5.000000 0.000000 1.400000
v 5.000000 0.000000 1.200000
v 4.400000 3.500000 1.350000
v 4.400000 3.500000 1.200000
v 5.000000 3.500000 1.400000
v 5.000000 3.500000 1.200000
v 4.750000 6.750000 1.400000
v 4.750000 6.750000 1.200000
v 4.750000 0.250000 1.400000
v 4.750000 0.250000 1.200000
v 4.750000 3.500000 1.400000
v 4.750000 3.500000 1.200000
vn -0.141422 0.000000 0.989949
vn -0.141421 0.000000 0.989950
vn -1.000000 0.000000 0.000000
vn -0.707107 -0.707107 0.000000
vn -0.707107 -0.707106 0.000000
vn 1.000000 0.000000 0.000000
vn 1.000000 -0.000000 -0.000001
vn -0.707107 0.707106 0.000002
vn -0.707106 0.707107 0.000001
usemtl (null)
s off
f 31//1 35//1 29//1 24//1
f 20//11 27//11 35//11 31//11
f 35//1 33//1 25//1 29//1
f 27//12 21//12 33//12 35//12
f 28//4 19//4 32//4 36//4
f 23//4 30//4 36//4 32//4
f 36//4 34//4 22//4 28//4
f 30//4 26//4 34//4 36//4
f 21//13 27//13 28//13 22//13
f 21//14 22//14 34//14 33//14
f 25//15 33//15 34//15 26//15
f 25//16 26//16 30//16 29//16
f 23//17 24//17 29//17 30//17
f 23//18 32//18 31//18 24//18
f 19//19 20//19 31//19 32//19
f 20//13 19//13 28//13 27//13
v -4.400001 6.400001 1.200000
v -4.400001 6.400001 1.350000
v -4.400001 0.600000 1.350000
v -4.400001 0.600000 1.200000
v -5.000000 7.000000 1.200000
v -5.000001 7.000000 1.400000
v -5.000000 0.000000 1.400000
v -5.000000 0.000000 1.200000
v -4.400001 3.500000 1.350000
v -4.400001 3.500000 1.200000
v -5.000000 3.500000 1.400000
v -5.000000 3.500000 1.200000
v -4.750001 6.750000 1.400000
v -4.750000 6.750000 1.200000
v -4.750000 0.250000 1.400000
v -4.750000 0.250000 1.200000
v -4.750000 3.500000 1.400000
v -4.750000 3.500000 1.200000
vn 0.141422 0.000000 0.989949
vn 0.141421 0.000000 0.989950
vn 0.707107 -0.707107 0.000000
vn 0.707107 -0.707106 0.000000
vn -1.000000 -0.000000 -0.000001
vn 0.707107 0.707106 0.000002
vn 0.707106 0.707107 0.000001
usemtl (null)
s off
f 49//1 42//1 47//1 53//1
f 38//20 49//20 53//20 45//20
f 53//1 47//1 43//1 51//1
f 45//21 53//21 51//21 39//21
f 50//4 37//4 46//4 54//4
f 41//4 50//4 54//4 48//4
f 54//4 46//4 40//4 52//4
f 48//4 54//4 52//4 44//4
f 39//16 40//16 46//16 45//16
f 39//22 51//22 52//22 40//22
f 43//23 44//23 52//23 51//23
f 43//13 47//13 48//13 44//13
f 41//24 48//24 47//24 42//24
f 41//25 42//25 49//25 50//25
f 37//26 50//26 49//26 38//26
f 46//16 37//16 38//16 45//16
v 0.400000 9.000000 1.200000
v 0.400000 9.000000 1.350000
v 0.400000 6.400000 1.350000
v 0.400000 6.400000 1.200000
v 1.000000 9.000000 1.200000
v 1.000000 9.000000 1.400000
v 1.000000 7.000000 1.399999
v 1.000000 7.000000 1.200000
v 0.400000 8.000000 1.350000
v 0.400000 8.000000 1.200000
v 1.000000 8.000000 1.400000
v 1.000000 8.000000 1.200000
v 0.750000 9.000000 1.400000
v 0.750000 9.000000 1.200000
v 0.750000 6.750000 1.400000
v 0.750000 6.750000 1.200000
v 0.750000 8.000000 1.400000
v 0.750000 8.000000 1.200000
vn 0.000001 -0.000000 1.000000
vn -0.141421 0.000000 0.989949
usemtl (null)
s off
f 67//1 71//1 65//1 60//1
f 56//12 63//12 71//12 67//12
f 71//27 69//27 61//27 65//27
f 63//28 57//28 69//28 71//28
f 64//4 55//4 68//4 72//4
f 59//4 66//4 72//4 68//4
f 72//4 70//4 58//4 64//4
f 66//4 62//4 70//4 72//4
f 57//13 63//13 64//13 58//13
f 57//22 58//22 70//22 69//22
f 61//22 69//22 70//22 62//22
f 61//16 62//16 66//16 65//16
f 59//17 60//17 65//17 66//17
f 59//5 68//5 67//5 60//5
f 55//5 56//5 67//5 68//5
f 56//13 55//13 64//13 63//13
v 0.400000 6.400000 1.200000
v 0.400000 6.400000 1.350000
v 4.400000 6.400001 1.350000
v 4.400000 6.400001 1.200000
v 1.000000 7.000000 1.200000
v 1.000000 7.000000 1.400000
v 5.000000 7.000000 1.399999
v 5.000000 7.000000 1.200000
v 2.500000 6.400000 1.350000
v 2.500000 6.400000 1.200000
v 2.500000 7.000000 1.400000
v 2.500000 7.000000 1.200000
v 0.750000 6.750000 1.400000
v 0.750000 6.750000 1.200000
v 4.750000 6.750000 1.400000
v 4.750000 6.750000 1.200000
v 2.500000 6.750000 1.400000
v 2.500000 6.750000 1.200000
vn 0.000000 -0.141422 0.989949
vn 0.000000 0.000001 1.000000
vn 0.000000 -0.141421 0.989950
vn 0.707106 -0.707107 0.000000
vn -0.707107 0.707107 0.000001
usemtl (null)
s off
f 85//1 89//1 83//1 78//1
f 74//29 81//29 89//29 85//29
f 89//30 87//30 79//30 83//30
f 81//31 75//31 87//31 89//31
f 82//4 73//4 86//4 90//4
f 77//4 84//4 90//4 86//4
f 90//4 88//4 76//4 82//4
f 84//4 80//4 88//4 90//4
f 75//8 81//8 82//8 76//8
f 75//32 76//32 88//32 87//32
f 79//32 87//32 88//32 80//32
f 79//5 80//5 84//5 83//5
f 77//5 78//5 83//5 84//5
f 77//18 86//18 85//18 78//18
f 73//33 74//33 85//33 86//33
f 74//8 73//8 82//8 81//8
v -0.400001 6.400000 1.200000
v -0.400001 6.400000 1.350000
v -4.400001 6.400001 1.350000
v -4.400001 6.400001 1.200000
v -1.000000 7.000000 1.200000
v -1.000001 7.000000 1.400000
v -5.000001 7.000000 1.399999
v -5.000001 7.000000 1.200000
v -2.500001 6.400000 1.350000
v -2.500001 6.400000 1.200000
v -2.500001 7.000000 1.400000
v -2.500001 7.000000 1.200000
v -0.750001 6.750000 1.400000
v -0.750000 6.750000 1.200000
v -4.750001 6.750000 1.400000
v -4.750001 6.750000 1.200000
v -2.500001 6.750000 1.400000
v -2.500001 6.750000 1.200000
vn -0.707106 -0.707107 0.000000
vn 0.707107 0.707107 0.000001
usemtl (null)
s off
f 103//1 96//1 101//1 107//1
f 92//29 103//29 107//29 99//29
f 107//30 101//30 97//30 105//30
f 99//31 107//31 105//31 93//31
f 104//4 91//4 100//4 108//4
f 95//4 104//4 108//4 102//4
f 108//4 100//4 94//4 106//4
f 102//4 108//4 106//4 98//4
f 93//8 94//8 100//8 99//8
f 93//34 105//34 106//34 94//34
f 97//34 98//34 106//34 105//34
f 97//5 101//5 102//5 98//5
f 95//5 102//5 101//5 96//5
f 95//25 96//25 103//25 104//25
f 91//35 104//35 103//35 92//35
f 100//8 91//8 92//8 99//8
v -0.400001 9.000000 1.200000
v -0.400001 9.000000 1.350000
v -0.400001 6.400000 1.350000
v -0.400001 6.400000 1.200000
v -1.000000 9.000000 1.200000
v -1.000001 9.000000 1.400000
v -1.000000 7.000000 1.399999
v -1.000000 7.000000 1.200000
v -0.400001 8.000000 1.350000
v -0.400001 8.000000 1.200000
v -1.000000 8.000000 1.400000
v -1.000000 8.000000 1.200000
v -0.750001 9.000000 1.400000
v -0.750000 9.000000 1.200000
v -0.750000 6.750000 1.400000
v -0.750000 6.750000 1.200000
v -0.750000 8.000000 1.400000
v -0.750000 8.000000 1.200000
vn -0.000001 -0.000000 1.000000
vn 0.141421 0.000000 0.989949
usemtl (null)
s off
f 121//1 114//1 119//1 125//1
f 110//20 121//20 125//20 117//20
f 125//36 119//36 115//36 123//36
f 117//37 125//37 123//37 111//37
f 122//4 109//4 118//4 126//4
f 113//4 122//4 126//4 120//4
f 126//4 118//4 112//4 124//4
f 120//4 126//4 124//4 116//4
f 111//16 112//16 118//16 117//16
f 111//14 123//14 124//14 112//14
f 115//14 116//14 124//14 123//14
f 115//13 119//13 120//13 116//13
f 113//24 120//24 119//24 114//24
f 113//5 114//5 121//5 122//5
f 109//5 122//5 121//5 110//5
f 118//16 109//16 110//16 117//16
v 1.000000 6.500000 -0.000000
v 1.000000 6.500000 1.200000
v 0.500000 6.500000 1.200000
v 0.500000 6.500000 -0.000000
v 1.000000 9.000001 -0.000000
v 1.000000 9.000001 1.200000
v 0.500000 9.000001 1.199999
v 0.500000 9.000000 -0.000000
vn -0.000001 1.000000 -0.000000
usemtl (null)
s off
f 127//8 128//8 129//8 130//8
f 131//38 134//38 133//38 132//38
f 127//16 131//16 132//16 128//16
f 128//36 132//36 133//36 129//36
f 129//13 133//13 134//13 130//13
f 131//4 127//4 130//4 134//4
v -0.500000 6.500000 -0.000000
v -0.500000 6.500000 1.200000
v -1.000000 6.500000 1.200000
v -1.000000 6.500000 -0.000000
v -0.500000 9.000001 -0.000000
v -0.500000 9.000001 1.200000
v -1.000000 9.000001 1.199999
v -1.000000 9.000000 -0.000000
usemtl (null)
s off
f 135//8 136//8 137//8 138//8
f 139//38 142//38 141//38 140//38
f 135//16 139//16 140//16 136//16
f 136//36 140//36 141//36 137//36
f 137//13 141//13 142//13 138//13
f 139//4 135//4 138//4 142//4
v 4.500000 6.500000 -0.000000
v 4.500000 6.500000 1.200000
v 1.000000 6.500000 1.200000
v 1.000000 6.500000 -0.000000
v 4.500000 7.000000 -0.000000
v 4.500000 7.000000 1.200000
v 1.000000 7.000000 1.199999
v 1.000000 7.000000 -0.000000
usemtl (null)
s off
f 143//8 144//8 145//8 146//8
f 147//5 150//5 149//5 148//5
f 143//16 147//16 148//16 144//16
f 144//1 148//1 149//1 145//1
f 145//13 149//13 150//13 146//13
f 147//4 143//4 146//4 150//4
v 5.000000 0.000000 0.000000
v 5.000000 0.000000 1.200000
v -4.500000 0.000000 1.200000
v -4.500000 -0.000000 -0.000000
v 5.000000 0.500000 0.000000
v 5.000000 0.500000 1.200000
v -4.500000 0.500000 1.200000
v -4.500000 0.500000 -0.000000
usemtl (null)
s off
f 151//8 152//8 153//8 154//8
f 155//5 158//5 157//5 156//5
f 151//16 155//16 156//16 152//16
f 152//1 156//1 157//1 153//1
f 153//13 157//13 158//13 154//13
f 155//4 151//4 154//4 158//4
v -1.000000 6.500000 -0.000000
v -1.000000 6.500000 1.200000
v -5.000000 6.500000 1.200000
v -5.000000 6.500000 -0.000000
v -1.000000 7.000000 -0.000000
v -1.000000 7.000000 1.200000
v -5.000000 7.000000 1.199999
v -5.000000 7.000000 -0.000000
usemtl (null)
s off
f 159//8 160//8 161//8 162//8
f 163//5 166//5 165//5 164//5
f 159//16 163//16 164//16 160//16
f 160//1 164//1 165//1 161//1
f 161//13 165//13 166//13 162//13
f 163//4 159//4 162//4 166//4
v 5.000000 0.500000 0.000000
v 5.000000 0.500000 1.200000
v 4.500000 0.500000 1.200000
v 4.500000 0.500000 -0.000000
v 5.000000 7.000000 -0.000000
v 5.000000 7.000000 1.200000
v 4.500000 7.000000 1.199999
v 4.500000 7.000000 -0.000000
usemtl (null)
s off
f 167//8 168//8 169//8 170//8
f 171//5 174//5 173//5 172//5
f 167//16 171//16 172//16 168//16
f 168//36 172//36 173//36 169//36
f 169//13 173//13 174//13 170//13
f 171//4 167//4 170//4 174//4
v -4.500000 0.000000 0.000000
v -4.500000 0.000000 1.200000
v -5.000000 0.000000 1.200000
v -5.000000 -0.000000 -0.000000
v -4.500000 6.500000 -0.000000
v -4.500000 6.500000 1.200000
v -5.000000 6.500000 1.200000
v -5.000000 6.500000 -0.000000
usemtl (null)
s off
f 175//8 176//8 177//8 178//8
f 179//5 182//5 181//5 180//5
f 175//16 179//16 180//16 176//16
f 176//36 180//36 181//36 177//36
f 177//13 181//13 182//13 178//13
f 179//4 175//4 178//4 182//4
v -1.000000 -0.000000 -0.150000
v -1.000000 0.000000 0.000000
v -5.000000 -0.000000 -0.000000
v -5.000000 -0.000000 -0.150000
v -1.000000 7.000000 -0.150000
v -1.000000 7.000000 -0.000000
v -5.000000 7.000000 -0.000000
v -5.000000 7.000000 -0.150000
v 1.000000 7.000000 -0.000000
v 1.000000 7.000000 -0.150000
v 1.000000 0.000000 0.000000
v 1.000000 -0.000000 -0.150000
v 5.000000 -0.000000 -0.149999
v 5.000000 0.000000 0.000001
v 5.000000 7.000000 -0.149999
v 5.000000 7.000000 0.000001
v 1.000000 9.000000 -0.150000
v 1.000000 9.000000 -0.000000
v -1.000000 9.000000 -0.000000
v -1.000000 9.000000 -0.150000
vn 1.000000 0.000000 0.000002
vn 1.000000 0.000000 0.000004
vn -1.000000 -0.000000 -0.000004
usemtl (null)
s off
f 183//8 184//8 185//8 186//8
f 187//5 190//5 189//5 188//5
f 184//1 188//1 189//1 185//1
f 185//13 189//13 190//13 186//13
f 187//4 183//4 186//4 190//4
f 183//4 187//4 192//4 194//4
f 188//1 184//1 193//1 191//1
f 184//8 183//8 194//8 193//8
f 193//8 194//8 195//8 196//8
f 192//5 191//5 198//5 197//5
f 191//1 193//1 196//1 198//1
f 194//4 192//4 197//4 195//4
f 195//39 197//39 198//39 196//39
f 191//40 192//40 199//40 200//40
f 188//1 191//1 200//1 201//1
f 192//4 187//4 202//4 199//4
f 187//41 188//41 201//41 202//41
f 202//5 201//5 200//5 199//5
v -3.500000 2.500000 -0.000000
v -3.500000 2.500000 1.000000
v -3.500000 0.500000 1.000000
v -3.500000 0.500000 -0.000000
v -2.500000 2.500000 -0.000000
v -2.500000 2.500000 1.000000
v -2.500000 0.500000 1.000000
v -2.500000 0.500000 -0.000000
v -1.500000 2.500000 -0.000000
v -1.500000 2.500000 1.000000
v -1.500000 0.500000 1.000000
v -1.500000 0.500000 -0.000000
v 3.500000 2.500000 -0.000000
v 3.500000 2.500000 1.000000
v 3.500000 0.500000 1.000000
v 3.500000 0.500000 -0.000000
v 2.500000 2.500000 -0.000000
v 2.500000 2.500000 1.000000
v 2.500000 0.500000 1.000000
v 2.500000 0.500000 -0.000000
v 1.500000 2.500000 -0.000000
v 1.500000 2.500000 1.000000
v 1.500000 0.500000 1.000000
v 1.500000 0.500000 -0.000000
v 0.500000 2.500000 -0.000000
v 0.500000 2.500000 1.000000
v 0.500000 0.500000 1.000000
v 0.500000 0.500000 -0.000000
v -0.500000 2.500000 -0.000000
v -0.500000 2.500000 1.000000
v -0.500000 0.500000 1.000000
v -0.500000 0.500000 -0.000000
v -3.500000 2.500000 -0.000000
v -3.500000 2.500000 1.000000
v -3.500000 0.500000 1.000000
v -3.500000 0.500000 -0.000000
v -2.500000 2.500000 -0.000000
v -2.500000 2.500000 1.000000
v -2.500000 0.500000 1.000000
v -2.500000 0.500000 -0.000000
v -1.500000 2.500000 -0.000000
v -1.500000 2.500000 1.000000
v -1.500000 0.500000 1.000000
v -1.500000 0.500000 -0.000000
v 3.500000 2.500000 -0.000000
v 3.500000 2.500000 1.000000
v 3.500000 0.500000 1.000000
v 3.500000 0.500000 -0.000000
v 2.500000 2.500000 -0.000000
v 2.500000 2.500000 1.000000
v 2.500000 0.500000 1.000000
v 2.500000 0.500000 -0.000000
v 1.500000 2.500000 -0.000000
v 1.500000 2.500000 1.000000
v 1.500000 0.500000 1.000000
v 1.500000 0.500000 -0.000000
v 0.500000 2.500000 -0.000000
v 0.500000 2.500000 1.000000
v 0.500000 0.500000 1.000000
v 0.500000 0.500000 -0.000000
v -0.500000 2.500000 -0.000000
v -0.500000 2.500000 1.000000
v -0.500000 0.500000 1.000000
v -0.500000 0.500000 -0.000000
usemtl (null)
s off
f 203//16 204//16 205//16 206//16
f 207//16 208//16 209//16 210//16
f 211//16 212//16 213//16 214//16
f 215//16 216//16 217//16 218//16
f 219//16 220//16 221//16 222//16
f 223//16 224//16 225//16 226//16
f 227//16 228//16 229//16 230//16
f 231//16 232//16 233//16 234//16
f 235//13 238//13 237//13 236//13
f 239//13 242//13 241//13 240//13
f 243//13 246//13 245//13 244//13
f 247//13 250//13 249//13 248//13
f 251//13 254//13 253//13 252//13
f 255//13 258//13 257//13 256//13
f 259//13 262//13 261//13 260//13
f 263//13 266//13 265//13 264//13
