# Blender3D v249 OBJ File: machine.blend
# www.blender3d.org
mtllib machine.mtl
v -3.500000 2.500000 -0.000000
v -3.500000 2.500000 1.000000
v -3.500000 0.500000 1.000000
v -3.500000 0.500000 -0.000000
v -2.500000 2.500000 -0.000000
v -2.500000 2.500000 1.000000
v -2.500000 0.500000 1.000000
v -2.500000 0.500000 -0.000000
v -1.500000 2.500000 -0.000000
v -1.500000 2.500000 1.000000
v -1.500000 0.500000 1.000000
v -1.500000 0.500000 -0.000000
v 3.500000 2.500000 -0.000000
v 3.500000 2.500000 1.000000
v 3.500000 0.500000 1.000000
v 3.500000 0.500000 -0.000000
v 2.500000 2.500000 -0.000000
v 2.500000 2.500000 1.000000
v 2.500000 0.500000 1.000000
v 2.500000 0.500000 -0.000000
v 1.500000 2.500000 -0.000000
v 1.500000 2.500000 1.000000
v 1.500000 0.500000 1.000000
v 1.500000 0.500000 -0.000000
v 0.500000 2.500000 -0.000000
v 0.500000 2.500000 1.000000
v 0.500000 0.500000 1.000000
v 0.500000 0.500000 -0.000000
v -0.500000 2.500000 -0.000000
v -0.500000 2.500000 1.000000
v -0.500000 0.500000 1.000000
v -0.500000 0.500000 -0.000000
v -3.500000 2.500000 -0.000000
v -3.500000 2.500000 1.000000
v -3.500000 0.500000 1.000000
v -3.500000 0.500000 -0.000000
v -2.500000 2.500000 -0.000000
v -2.500000 2.500000 1.000000
v -2.500000 0.500000 1.000000
v -2.500000 0.500000 -0.000000
v -1.500000 2.500000 -0.000000
v -1.500000 2.500000 1.000000
v -1.500000 0.500000 1.000000
v -1.500000 0.500000 -0.000000
v 3.500000 2.500000 -0.000000
v 3.500000 2.500000 1.000000
v 3.500000 0.500000 1.000000
v 3.500000 0.500000 -0.000000
v 2.500000 2.500000 -0.000000
v 2.500000 2.500000 1.000000
v 2.500000 0.500000 1.000000
v 2.500000 0.500000 -0.000000
v 1.500000 2.500000 -0.000000
v 1.500000 2.500000 1.000000
v 1.500000 0.500000 1.000000
v 1.500000 0.500000 -0.000000
v 0.500000 2.500000 -0.000000
v 0.500000 2.500000 1.000000
v 0.500000 0.500000 1.000000
v 0.500000 0.500000 -0.000000
v -0.500000 2.500000 -0.000000
v -0.500000 2.500000 1.000000
v -0.500000 0.500000 1.000000
v -0.500000 0.500000 -0.000000
vn 1.000000 0.000000 0.000000
vn -1.000000 0.000000 0.000000
usemtl (null)
s off
f 1//1 2//1 3//1 4//1
f 5//1 6//1 7//1 8//1
f 9//1 10//1 11//1 12//1
f 13//1 14//1 15//1 16//1
f 17//1 18//1 19//1 20//1
f 21//1 22//1 23//1 24//1
f 25//1 26//1 27//1 28//1
f 29//1 30//1 31//1 32//1
f 33//2 36//2 35//2 34//2
f 37//2 40//2 39//2 38//2
f 41//2 44//2 43//2 42//2
f 45//2 48//2 47//2 46//2
f 49//2 52//2 51//2 50//2
f 53//2 56//2 55//2 54//2
f 57//2 60//2 59//2 58//2
f 61//2 64//2 63//2 62//2
v -4.500000 0.500000 -0.500000
v -4.500000 6.500000 -0.500000
v -5.000000 -0.000000 -0.500000
v -5.000000 0.000000 1.000000
v -5.000000 7.000000 0.999999
v -5.000000 7.000000 -0.500000
v 0.500000 -0.000000 -0.500000
v 0.500000 0.000000 1.000000
v 5.000000 7.000000 -0.500000
v 4.999999 7.000000 1.000000
v 1.000000 7.000000 -0.500000
v 1.000000 7.000000 1.000000
v 0.500000 6.500000 -0.500000
v 5.000000 -0.000000 -0.500000
v 5.000000 0.000000 1.000000
v 4.500000 6.500000 -0.500000
v 0.500000 0.500000 -0.500000
v 4.500000 0.500000 -0.500000
v -0.500000 -0.000000 -0.500000
v -0.500000 0.500000 -0.500000
v -0.500000 0.000000 1.000000
v -1.000000 7.000000 -0.500000
v -1.000000 7.000000 1.000000
v -0.500000 6.500000 -0.500000
v 1.000000 9.000000 -0.500000
v 1.000000 9.000000 1.000000
v -1.000000 9.000000 -0.500000
v -1.000000 9.000000 1.000000
v 0.500000 9.000000 -0.000000
v 0.500000 9.000000 1.000000
v -0.500000 9.000000 -0.000000
v -0.500000 9.000000 1.000000
v 0.500000 6.500000 -0.000000
v 0.500000 6.500000 1.000000
v -0.500000 6.500000 -0.000000
v -0.500000 6.500000 1.000000
v 4.500000 6.500000 -0.000000
v 4.500000 6.500000 1.000000
v -4.500000 6.500000 -0.000000
v -4.500000 6.500000 1.000000
v 4.500000 0.500000 0.000000
v 4.500000 0.500000 1.000000
v -4.500000 0.500000 0.000000
v -4.500000 0.500000 1.000000
v 0.500000 0.500000 0.000000
v 0.500000 0.500000 1.000000
v -0.500000 0.500000 0.000000
v -0.500000 0.500000 1.000000
vn 0.000000 0.000000 -1.000000
vn -0.000001 0.000000 1.000000
vn -0.000000 0.000000 1.000000
vn 0.000000 1.000000 0.000000
vn 0.000000 -1.000000 0.000000
vn 0.000000 0.000000 0.000000
usemtl (null)
s off
f 65//3 66//3 88//3 84//3
f 66//3 65//3 67//3 70//3
f 108//4 104//4 69//4 68//4
f 68//2 69//2 70//2 67//2
f 88//3 66//3 70//3 86//3
f 104//5 100//5 87//5 69//5
f 86//6 70//6 69//6 87//6
f 65//3 84//3 83//3 67//3
f 112//5 108//5 68//5 85//5
f 83//7 85//7 68//7 67//7
f 78//7 79//7 72//7 71//7
f 106//5 110//5 72//5 79//5
f 81//3 82//3 78//3 71//3
f 78//1 73//1 74//1 79//1
f 102//4 106//4 79//4 74//4
f 82//3 80//3 73//3 78//3
f 73//6 75//6 76//6 74//6
f 98//5 102//5 74//5 76//5
f 80//3 77//3 75//3 73//3
f 80//3 82//3 81//3 77//3
f 81//3 71//3 83//3 84//3
f 71//7 72//7 85//7 83//7
f 75//3 77//3 88//3 86//3
f 72//5 110//5 112//5 85//5
f 77//3 81//3 84//3 88//3
f 76//1 75//1 89//1 90//1
f 75//3 86//3 91//3 89//3
f 86//2 87//2 92//2 91//2
f 90//6 89//6 93//6 94//6
f 89//6 91//6 95//6 93//6
f 91//6 92//6 96//6 95//6
f 87//5 100//5 96//5 92//5
f 98//5 76//5 90//5 94//5
f 94//2 93//2 97//2 98//2
f 93//5 95//5 99//5 97//5
f 95//1 96//1 100//1 99//1
f 98//7 97//7 101//7 102//7
f 97//8 99//8 103//8 101//8
f 99//7 100//7 104//7 103//7
f 102//2 101//2 105//2 106//2
f 103//1 104//1 108//1 107//1
f 106//6 105//6 109//6 110//6
f 107//6 108//6 112//6 111//6
f 110//6 109//6 111//6 112//6
f 99//5 103//5 107//5 111//5
f 97//5 99//5 111//5 109//5
f 97//5 109//5 105//5 101//5
