# Blender3D v249 OBJ File: peg.blend
# www.blender3d.org
mtllib peg.mtl
v 0.070711 0.070711 -0.000000
v 0.083147 0.055557 -0.000000
v 0.092388 0.038268 -0.000000
v 0.098079 0.019509 -0.000000
v 0.100000 -0.000000 -0.000000
v 0.098079 -0.019509 0.000000
v 0.092388 -0.038268 0.000000
v 0.083147 -0.055557 0.000000
v 0.070711 -0.070711 0.000000
v 0.055557 -0.083147 0.000000
v 0.038268 -0.092388 0.000000
v 0.019509 -0.098079 0.000000
v -0.000000 -0.100000 0.000000
v -0.019509 -0.098079 0.000000
v -0.038268 -0.092388 0.000000
v -0.055557 -0.083147 0.000000
v -0.070711 -0.070711 0.000000
v -0.083147 -0.055557 0.000000
v -0.092388 -0.038268 0.000000
v -0.098079 -0.019509 0.000000
v -0.100000 0.000000 -0.000000
v -0.098079 0.019509 -0.000000
v -0.092388 0.038268 -0.000000
v -0.083147 0.055557 -0.000000
v -0.070711 0.070711 -0.000000
v -0.055557 0.083147 -0.000000
v -0.038268 0.092388 -0.000000
v -0.019509 0.098078 -0.000000
v 0.000000 0.100000 -0.000000
v 0.019509 0.098078 -0.000000
v 0.038269 0.092388 -0.000000
v 0.055557 0.083147 -0.000000
v 0.070711 0.070711 1.000000
v 0.083147 0.055557 1.000000
v 0.092388 0.038268 1.000000
v 0.098079 0.019509 1.000000
v 0.100000 -0.000000 1.000000
v 0.098078 -0.019509 1.000000
v 0.092388 -0.038268 1.000000
v 0.083147 -0.055557 1.000000
v 0.070711 -0.070711 1.000000
v 0.055557 -0.083147 1.000000
v 0.038268 -0.092388 1.000000
v 0.019509 -0.098078 1.000000
v 0.000000 -0.100000 1.000000
v -0.019509 -0.098078 1.000000
v -0.038268 -0.092388 1.000000
v -0.055557 -0.083147 1.000000
v -0.070711 -0.070711 1.000000
v -0.083147 -0.055557 1.000000
v -0.092388 -0.038269 1.000000
v -0.098078 -0.019509 1.000000
v -0.100000 -0.000000 1.000000
v -0.098079 0.019509 1.000000
v -0.092388 0.038268 1.000000
v -0.083147 0.055557 1.000000
v -0.070711 0.070710 1.000000
v -0.055558 0.083147 1.000000
v -0.038269 0.092388 1.000000
v -0.019510 0.098079 1.000000
v -0.000001 0.100000 1.000000
v 0.019508 0.098079 1.000000
v 0.038268 0.092388 1.000000
v 0.055556 0.083148 1.000000
v 0.000000 0.000000 1.000000
vn 0.000000 0.000000 1.000000
vn 0.707083 0.707083 0.000000
vn 0.498764 0.498764 0.708792
vn 0.586505 0.391888 0.708792
vn 0.831446 0.555559 0.000000
vn 0.651692 0.269936 0.708792
vn 0.923856 0.382672 0.000000
vn 0.691824 0.137608 0.708792
vn 0.980773 0.195074 0.000000
vn 0.705374 0.000000 0.708792
vn 1.000000 0.000000 0.000000
vn 0.691824 -0.137608 0.708792
vn 0.980773 -0.195074 0.000000
vn 0.651692 -0.269936 0.708792
vn 0.923856 -0.382672 0.000000
vn 0.586505 -0.391888 0.708792
vn 0.831446 -0.555559 0.000000
vn 0.498764 -0.498764 0.708792
vn 0.707083 -0.707083 0.000000
vn 0.391888 -0.586505 0.708792
vn 0.555559 -0.831446 0.000000
vn 0.269936 -0.651692 0.708792
vn 0.382672 -0.923856 0.000000
vn 0.137608 -0.691824 0.708792
vn 0.195074 -0.980773 0.000000
vn 0.000000 -0.705374 0.708792
vn 0.000000 -1.000000 0.000000
vn -0.137608 -0.691824 0.708792
vn -0.195074 -0.980773 0.000000
vn -0.269936 -0.651692 0.708792
vn -0.382672 -0.923856 0.000000
vn -0.391888 -0.586505 0.708792
vn -0.555559 -0.831446 0.000000
vn -0.498764 -0.498764 0.708792
vn -0.707083 -0.707083 0.000000
vn -0.586505 -0.391888 0.708792
vn -0.831446 -0.555559 0.000000
vn -0.651692 -0.269936 0.708792
vn -0.923856 -0.382672 0.000000
vn -0.691824 -0.137608 0.708792
vn -0.980773 -0.195074 0.000000
vn -0.705374 0.000000 0.708792
vn -1.000000 0.000000 0.000000
vn -0.691824 0.137608 0.708792
vn -0.980773 0.195074 0.000000
vn -0.651692 0.269936 0.708792
vn -0.923856 0.382672 0.000000
vn -0.586505 0.391888 0.708792
vn -0.831446 0.555559 0.000000
vn -0.498764 0.498764 0.708792
vn -0.707083 0.707083 0.000000
vn -0.391888 0.586505 0.708792
vn -0.555559 0.831446 0.000000
vn -0.269936 0.651692 0.708792
vn -0.382672 0.923856 0.000000
vn -0.137608 0.691824 0.708792
vn -0.195074 0.980773 0.000000
vn 0.000000 0.705374 0.708792
vn 0.000000 1.000000 0.000000
vn 0.137608 0.691824 0.708792
vn 0.195074 0.980773 0.000000
vn 0.269936 0.651692 0.708792
vn 0.382672 0.923856 0.000000
vn 0.391888 0.586505 0.708792
vn 0.555559 0.831446 0.000000
usemtl (null)
s off
f 65//1 34//1 33//1
f 65//1 35//1 34//1
f 65//1 36//1 35//1
f 65//1 37//1 36//1
f 65//1 38//1 37//1
f 65//1 39//1 38//1
f 65//1 40//1 39//1
f 65//1 41//1 40//1
f 65//1 42//1 41//1
f 65//1 43//1 42//1
f 65//1 44//1 43//1
f 65//1 45//1 44//1
f 65//1 46//1 45//1
f 65//1 47//1 46//1
f 65//1 48//1 47//1
f 65//1 49//1 48//1
f 65//1 50//1 49//1
f 65//1 51//1 50//1
f 65//1 52//1 51//1
f 65//1 53//1 52//1
f 65//1 54//1 53//1
f 65//1 55//1 54//1
f 65//1 56//1 55//1
f 65//1 57//1 56//1
f 65//1 58//1 57//1
f 65//1 59//1 58//1
f 65//1 60//1 59//1
f 65//1 61//1 60//1
f 65//1 62//1 61//1
f 65//1 63//1 62//1
f 65//1 64//1 63//1
f 65//1 33//1 64//1
s 1
f 1//2 33//3 34//4 2//5
f 2//5 34//4 35//6 3//7
f 3//7 35//6 36//8 4//9
f 4//9 36//8 37//10 5//11
f 5//11 37//10 38//12 6//13
f 6//13 38//12 39//14 7//15
f 7//15 39//14 40//16 8//17
f 8//17 40//16 41//18 9//19
f 9//19 41//18 42//20 10//21
f 10//21 42//20 43//22 11//23
f 11//23 43//22 44//24 12//25
f 12//25 44//24 45//26 13//27
f 13//27 45//26 46//28 14//29
f 14//29 46//28 47//30 15//31
f 15//31 47//30 48//32 16//33
f 16//33 48//32 49//34 17//35
f 17//35 49//34 50//36 18//37
f 18//37 50//36 51//38 19//39
f 19//39 51//38 52//40 20//41
f 20//41 52//40 53//42 21//43
f 21//43 53//42 54//44 22//45
f 22//45 54//44 55//46 23//47
f 23//47 55//46 56//48 24//49
f 24//49 56//48 57//50 25//51
f 25//51 57//50 58//52 26//53
f 26//53 58//52 59//54 27//55
f 27//55 59//54 60//56 28//57
f 28//57 60//56 61//58 29//59
f 29//59 61//58 62//60 30//61
f 30//61 62//60 63//62 31//63
f 31//63 63//62 64//64 32//65
f 33//3 1//2 32//65 64//64
