# Blender3D v249 OBJ File: peg.blend
# www.blender3d.org
mtllib peg.mtl
v 0.070711 0.070711 -0.000000
v 0.083147 0.055557 -0.000000
v 0.092388 0.038268 -0.000000
v 0.098079 0.019509 -0.000000
v 0.100000 -0.000000 -0.000000
v 0.098079 -0.019509 0.000000
v 0.092388 -0.038268 0.000000
v 0.083147 -0.055557 0.000000
v 0.070711 -0.070711 0.000000
v 0.055557 -0.083147 0.000000
v 0.038268 -0.092388 0.000000
v 0.019509 -0.098079 0.000000
v -0.000000 -0.100000 0.000000
v -0.019509 -0.098079 0.000000
v -0.038268 -0.092388 0.000000
v -0.055557 -0.083147 0.000000
v -0.070711 -0.070711 0.000000
v -0.083147 -0.055557 0.000000
v -0.092388 -0.038268 0.000000
v -0.098079 -0.019509 0.000000
v -0.100000 0.000000 -0.000000
v -0.098079 0.019509 -0.000000
v -0.092388 0.038268 -0.000000
v -0.083147 0.055557 -0.000000
v -0.070711 0.070711 -0.000000
v -0.055557 0.083147 -0.000000
v -0.038268 0.092388 -0.000000
v -0.019509 0.098078 -0.000000
v 0.000000 0.100000 -0.000000
v 0.019509 0.098078 -0.000000
v 0.038269 0.092388 -0.000000
v 0.055557 0.083147 -0.000000
v 0.070711 0.070711 1.000000
v 0.083147 0.055557 1.000000
v 0.092388 0.038268 1.000000
v 0.098079 0.019509 1.000000
v 0.100000 -0.000000 1.000000
v 0.098078 -0.019509 1.000000
v 0.092388 -0.038268 1.000000
v 0.083147 -0.055557 1.000000
v 0.070711 -0.070711 1.000000
v 0.055557 -0.083147 1.000000
v 0.038268 -0.092388 1.000000
v 0.019509 -0.098078 1.000000
v 0.000000 -0.100000 1.000000
v -0.019509 -0.098078 1.000000
v -0.038268 -0.092388 1.000000
v -0.055557 -0.083147 1.000000
v -0.070711 -0.070711 1.000000
v -0.083147 -0.055557 1.000000
v -0.092388 -0.038269 1.000000
v -0.098078 -0.019509 1.000000
v -0.100000 -0.000000 1.000000
v -0.098079 0.019509 1.000000
v -0.092388 0.038268 1.000000
v -0.083147 0.055557 1.000000
v -0.070711 0.070710 1.000000
v -0.055558 0.083147 1.000000
v -0.038269 0.092388 1.000000
v -0.019510 0.098079 1.000000
v -0.000001 0.100000 1.000000
v 0.019508 0.098079 1.000000
v 0.038268 0.092388 1.000000
v 0.055556 0.083148 1.000000
v 0.052178 0.078091 1.020000
v 0.035940 0.086770 1.020000
v 0.018322 0.092114 1.020000
v -0.000001 0.093919 1.020000
v -0.018323 0.092114 1.020000
v -0.035942 0.086769 1.020000
v -0.052179 0.078090 1.020000
v -0.066411 0.066410 1.020000
v -0.078091 0.052178 1.020000
v -0.086770 0.035941 1.020000
v -0.092114 0.018322 1.020000
v -0.093919 -0.000000 1.020000
v -0.092114 -0.018323 1.020000
v -0.086769 -0.035941 1.020000
v -0.078090 -0.052178 1.020000
v -0.066410 -0.066410 1.020000
v -0.052178 -0.078090 1.020000
v -0.035941 -0.086769 1.020000
v -0.018322 -0.092114 1.020000
v 0.000000 -0.093918 1.020000
v 0.018323 -0.092114 1.020000
v 0.035941 -0.086769 1.020000
v 0.052178 -0.078090 1.020000
v 0.066410 -0.066410 1.020000
v 0.078090 -0.052178 1.020000
v 0.086769 -0.035941 1.020000
v 0.092114 -0.018323 1.020000
v 0.093919 -0.000000 1.020000
v 0.092114 0.018323 1.020000
v 0.086769 0.035941 1.020000
v 0.078090 0.052178 1.020000
v 0.066411 0.066410 1.020000
v 0.047369 0.047369 1.032733
v 0.055700 0.037218 1.032733
v 0.061891 0.025636 1.032733
v 0.065703 0.013069 1.032733
v 0.066990 -0.000000 1.032733
v 0.065703 -0.013069 1.032733
v 0.061890 -0.025636 1.032733
v 0.055700 -0.037218 1.032733
v 0.047369 -0.047369 1.032733
v 0.037217 -0.055700 1.032733
v 0.025636 -0.061890 1.032733
v 0.013069 -0.065703 1.032733
v 0.000000 -0.066990 1.032733
v -0.013069 -0.065703 1.032733
v -0.025636 -0.061890 1.032733
v -0.037217 -0.055700 1.032733
v -0.047369 -0.047369 1.032733
v -0.055700 -0.037218 1.032733
v -0.061890 -0.025636 1.032733
v -0.065703 -0.013069 1.032733
v -0.066990 -0.000000 1.032733
v -0.065703 0.013069 1.032733
v -0.061891 0.025636 1.032733
v -0.055700 0.037217 1.032733
v -0.047369 0.047369 1.032733
v -0.037218 0.055700 1.032733
v -0.025636 0.061890 1.032733
v -0.013070 0.065703 1.032733
v -0.000001 0.066990 1.032733
v 0.013069 0.065703 1.032733
v 0.025635 0.061891 1.032733
v 0.037217 0.055700 1.032733
v -0.000000 0.000000 1.040125
vt 0.395765 0.000117
vt 0.421566 0.233320
vt 0.391123 0.233311
vt 0.365321 0.000108
vt 0.360679 0.233301
vt 0.334878 0.000100
vt 0.330235 0.233292
vt 0.304434 0.000091
vt 0.299792 0.233282
vt 0.273990 0.000082
vt 0.269348 0.233273
vt 0.243547 0.000073
vt 0.238905 0.233264
vt 0.213103 0.000064
vt 0.208461 0.233254
vt 0.182660 0.000055
vt 0.178018 0.233245
vt 0.152217 0.000046
vt 0.147574 0.233236
vt 0.121773 0.000037
vt 0.117131 0.233226
vt 0.091330 0.000028
vt 0.086688 0.233217
vt 0.060887 0.000018
vt 0.056245 0.233208
vt 0.030443 0.000009
vt 0.025801 0.233199
vt 0.000000 0.000000
vt 0.974208 0.000308
vt 1.000000 0.233513
vt 0.969556 0.233502
vt 0.943764 0.000298
vt 0.939112 0.233492
vt 0.913320 0.000287
vt 0.908668 0.233481
vt 0.882876 0.000276
vt 0.878224 0.233471
vt 0.852431 0.000266
vt 0.847780 0.233461
vt 0.821987 0.000256
vt 0.817336 0.233450
vt 0.791543 0.000245
vt 0.786892 0.233440
vt 0.761099 0.000235
vt 0.756448 0.233430
vt 0.730654 0.000224
vt 0.726005 0.233419
vt 0.700210 0.000214
vt 0.695561 0.233409
vt 0.669766 0.000203
vt 0.665117 0.233399
vt 0.639321 0.000193
vt 0.634673 0.233389
vt 0.608877 0.000183
vt 0.604229 0.233379
vt 0.578432 0.000173
vt 0.573785 0.233369
vt 0.547988 0.000163
vt 0.543342 0.233359
vt 0.517543 0.000153
vt 0.512898 0.233350
vt 0.487098 0.000143
vt 0.482454 0.233340
vt 0.456654 0.000134
vt 0.452010 0.233330
vt 0.426209 0.000126
vt 0.117489 0.402774
vt 0.102794 0.405269
vt 0.101567 0.390713
vt 0.113591 0.388412
vt 0.087889 0.405269
vt 0.089328 0.390457
vt 0.073048 0.402397
vt 0.077293 0.387958
vt 0.058915 0.396666
vt 0.065901 0.383208
vt 0.046088 0.388247
vt 0.055594 0.376333
vt 0.035098 0.377443
vt 0.046784 0.367564
vt 0.026397 0.364660
vt 0.039824 0.357221
vt 0.020339 0.350385
vt 0.034998 0.345692
vt 0.017172 0.335166
vt 0.032504 0.333414
vt 0.017031 0.319584
vt 0.032450 0.320856
vt 0.019934 0.304233
vt 0.034852 0.308497
vt 0.025787 0.289696
vt 0.039635 0.296813
vt 0.034390 0.276528
vt 0.046634 0.286255
vt 0.045449 0.265230
vt 0.055609 0.277241
vt 0.058595 0.256241
vt 0.066247 0.270146
vt 0.073417 0.249936
vt 0.078177 0.265308
vt 0.089501 0.246649
vt 0.090887 0.263031
vt 0.105895 0.247212
vt 0.103762 0.263131
vt 0.121528 0.250971
vt 0.116291 0.265926
vt 0.135958 0.257644
vt 0.127941 0.271157
vt 0.148724 0.266934
vt 0.138279 0.278550
vt 0.159390 0.278473
vt 0.146932 0.287791
vt 0.167582 0.291817
vt 0.153593 0.298509
vt 0.173007 0.306459
vt 0.158023 0.310288
vt 0.175472 0.321840
vt 0.160068 0.322675
vt 0.174896 0.337370
vt 0.159662 0.335194
vt 0.171312 0.352453
vt 0.156833 0.347366
vt 0.164874 0.366509
vt 0.151702 0.358726
vt 0.155848 0.378998
vt 0.144484 0.368844
vt 0.144612 0.389444
vt 0.135474 0.377346
vt 0.131638 0.397459
vt 0.125038 0.383935
vt 0.108348 0.369658
vt 0.116316 0.366506
vt 0.123541 0.361877
vt 0.129748 0.355932
vt 0.134699 0.348885
vt 0.138195 0.340998
vt 0.140096 0.332565
vt 0.140319 0.323908
vt 0.138849 0.315358
vt 0.135732 0.307243
vt 0.131079 0.299880
vt 0.125060 0.293558
vt 0.117900 0.288532
vt 0.109870 0.285012
vt 0.101285 0.283156
vt 0.092496 0.283047
vt 0.083864 0.284688
vt 0.075715 0.287923
vt 0.068386 0.292718
vt 0.062164 0.298861
vt 0.057283 0.306095
vt 0.053924 0.314131
vt 0.052206 0.322652
vt 0.052185 0.331329
vt 0.053852 0.339827
vt 0.057137 0.347824
vt 0.061903 0.355017
vt 0.067963 0.361137
vt 0.075078 0.365960
vt 0.082976 0.369315
vt 0.091359 0.371089
vt 0.099925 0.371225
vt 0.096234 0.327381
vn 0.707083 0.707083 0.000000
vn 0.699393 0.699393 0.147069
vn 0.822413 0.549516 0.147069
vn 0.831446 0.555559 0.000000
vn 0.913816 0.378491 0.147069
vn 0.923856 0.382672 0.000000
vn 0.970092 0.192938 0.147069
vn 0.980773 0.195074 0.000000
vn 0.989105 0.000000 0.147069
vn 1.000000 0.000000 0.000000
vn 0.970092 -0.192969 0.147069
vn 0.980773 -0.195074 0.000000
vn 0.913816 -0.378521 0.147069
vn 0.923856 -0.382672 0.000000
vn 0.822413 -0.549516 0.147069
vn 0.831446 -0.555559 0.000000
vn 0.699393 -0.699393 0.147069
vn 0.707083 -0.707083 0.000000
vn 0.549516 -0.822413 0.147069
vn 0.555559 -0.831446 0.000000
vn 0.378521 -0.913816 0.147069
vn 0.382672 -0.923856 0.000000
vn 0.192969 -0.970092 0.147069
vn 0.195074 -0.980773 0.000000
vn 0.000000 -0.989105 0.147069
vn 0.000000 -1.000000 0.000000
vn -0.192938 -0.970092 0.147069
vn -0.195074 -0.980773 0.000000
vn -0.378491 -0.913816 0.147069
vn -0.382672 -0.923856 0.000000
vn -0.549516 -0.822413 0.147069
vn -0.555559 -0.831446 0.000000
vn -0.699393 -0.699393 0.147069
vn -0.707083 -0.707083 0.000000
vn -0.822413 -0.549516 0.147069
vn -0.831446 -0.555559 0.000000
vn -0.913816 -0.378521 0.147069
vn -0.923856 -0.382672 0.000000
vn -0.970092 -0.192969 0.147069
vn -0.980773 -0.195074 0.000000
vn -0.989105 0.000000 0.147069
vn -1.000000 0.000000 0.000000
vn -0.970092 0.192938 0.147069
vn -0.980773 0.195074 0.000000
vn -0.913816 0.378491 0.147069
vn -0.923856 0.382672 0.000000
vn -0.822413 0.549516 0.147069
vn -0.831446 0.555559 0.000000
vn -0.699393 0.699393 0.147069
vn -0.707083 0.707083 0.000000
vn -0.549516 0.822413 0.147069
vn -0.555559 0.831446 0.000000
vn -0.378521 0.913816 0.147069
vn -0.382672 0.923856 0.000000
vn -0.192969 0.970092 0.147069
vn -0.195074 0.980773 0.000000
vn 0.000000 0.989105 0.147069
vn 0.000000 1.000000 0.000000
vn 0.192938 0.970092 0.147069
vn 0.195074 0.980773 0.000000
vn 0.378491 0.913816 0.147069
vn 0.382672 0.923856 0.000000
vn 0.549516 0.822413 0.147069
vn 0.555559 0.831446 0.000000
vn 0.420240 0.628956 0.654042
vn 0.534867 0.534867 0.654042
vn 0.289468 0.698843 0.654042
vn 0.147557 0.741905 0.654042
vn 0.000000 0.756432 0.654042
vn -0.147557 0.741905 0.654042
vn -0.289468 0.698843 0.654042
vn -0.420240 0.628956 0.654042
vn -0.534867 0.534867 0.654042
vn -0.628956 0.420240 0.654042
vn -0.698843 0.289468 0.654042
vn -0.741905 0.147557 0.654042
vn -0.756432 0.000000 0.654042
vn -0.741905 -0.147557 0.654042
vn -0.698843 -0.289468 0.654042
vn -0.628956 -0.420240 0.654042
vn -0.534867 -0.534867 0.654042
vn -0.420240 -0.628956 0.654042
vn -0.289468 -0.698843 0.654042
vn -0.147557 -0.741905 0.654042
vn 0.000000 -0.756432 0.654042
vn 0.147557 -0.741905 0.654042
vn 0.289468 -0.698843 0.654042
vn 0.420240 -0.628956 0.654042
vn 0.534867 -0.534867 0.654042
vn 0.628956 -0.420240 0.654042
vn 0.698843 -0.289468 0.654042
vn 0.741905 -0.147557 0.654042
vn 0.756432 0.000000 0.654042
vn 0.741905 0.147557 0.654042
vn 0.698843 0.289468 0.654042
vn 0.628956 0.420240 0.654042
vn 0.192480 0.192480 0.962218
vn 0.226356 0.151219 0.962218
vn 0.251503 0.104160 0.962218
vn 0.267006 0.053102 0.962218
vn 0.272225 0.000000 0.962218
vn 0.267006 -0.053102 0.962218
vn 0.251503 -0.104160 0.962218
vn 0.226356 -0.151219 0.962218
vn 0.192480 -0.192480 0.962218
vn 0.151219 -0.226356 0.962218
vn 0.104160 -0.251503 0.962218
vn 0.053102 -0.267006 0.962218
vn 0.000000 -0.272225 0.962218
vn -0.053102 -0.267006 0.962218
vn -0.104160 -0.251503 0.962218
vn -0.151219 -0.226356 0.962218
vn -0.192480 -0.192480 0.962218
vn -0.226356 -0.151250 0.962218
vn -0.251503 -0.104160 0.962218
vn -0.267006 -0.053102 0.962218
vn -0.272225 0.000000 0.962218
vn -0.267006 0.053102 0.962218
vn -0.251503 0.104160 0.962218
vn -0.226356 0.151219 0.962218
vn -0.192480 0.192480 0.962218
vn -0.151250 0.226356 0.962218
vn -0.104160 0.251503 0.962218
vn -0.053102 0.267006 0.962218
vn 0.000000 0.272225 0.962218
vn 0.053102 0.267006 0.962218
vn 0.104160 0.251503 0.962218
vn 0.151219 0.226356 0.962218
vn 0.000000 0.000000 1.000000
usemtl Material_peg.png
s 1
f 1/1/1 33/2/2 34/3/3 2/4/4
f 2/4/4 34/3/3 35/5/5 3/6/6
f 3/6/6 35/5/5 36/7/7 4/8/8
f 4/8/8 36/7/7 37/9/9 5/10/10
f 5/10/10 37/9/9 38/11/11 6/12/12
f 6/12/12 38/11/11 39/13/13 7/14/14
f 7/14/14 39/13/13 40/15/15 8/16/16
f 8/16/16 40/15/15 41/17/17 9/18/18
f 9/18/18 41/17/17 42/19/19 10/20/20
f 10/20/20 42/19/19 43/21/21 11/22/22
f 11/22/22 43/21/21 44/23/23 12/24/24
f 12/24/24 44/23/23 45/25/25 13/26/26
f 13/26/26 45/25/25 46/27/27 14/28/28
f 14/29/28 46/30/27 47/31/29 15/32/30
f 15/32/30 47/31/29 48/33/31 16/34/32
f 16/34/32 48/33/31 49/35/33 17/36/34
f 17/36/34 49/35/33 50/37/35 18/38/36
f 18/38/36 50/37/35 51/39/37 19/40/38
f 19/40/38 51/39/37 52/41/39 20/42/40
f 20/42/40 52/41/39 53/43/41 21/44/42
f 21/44/42 53/43/41 54/45/43 22/46/44
f 22/46/44 54/45/43 55/47/45 23/48/46
f 23/48/46 55/47/45 56/49/47 24/50/48
f 24/50/48 56/49/47 57/51/49 25/52/50
f 25/52/50 57/51/49 58/53/51 26/54/52
f 26/54/52 58/53/51 59/55/53 27/56/54
f 27/56/54 59/55/53 60/57/55 28/58/56
f 28/58/56 60/57/55 61/59/57 29/60/58
f 29/60/58 61/59/57 62/61/59 30/62/60
f 30/62/60 62/61/59 63/63/61 31/64/62
f 31/64/62 63/63/61 64/65/63 32/66/64
f 33/2/2 1/1/1 32/66/64 64/65/63
f 33/67/2 64/68/63 65/69/65 96/70/66
f 64/68/63 63/71/61 66/72/67 65/69/65
f 63/71/61 62/73/59 67/74/68 66/72/67
f 62/73/59 61/75/57 68/76/69 67/74/68
f 61/75/57 60/77/55 69/78/70 68/76/69
f 60/77/55 59/79/53 70/80/71 69/78/70
f 59/79/53 58/81/51 71/82/72 70/80/71
f 58/81/51 57/83/49 72/84/73 71/82/72
f 57/83/49 56/85/47 73/86/74 72/84/73
f 56/85/47 55/87/45 74/88/75 73/86/74
f 55/87/45 54/89/43 75/90/76 74/88/75
f 54/89/43 53/91/41 76/92/77 75/90/76
f 53/91/41 52/93/39 77/94/78 76/92/77
f 52/93/39 51/95/37 78/96/79 77/94/78
f 51/95/37 50/97/35 79/98/80 78/96/79
f 50/97/35 49/99/33 80/100/81 79/98/80
f 49/99/33 48/101/31 81/102/82 80/100/81
f 48/101/31 47/103/29 82/104/83 81/102/82
f 47/103/29 46/105/27 83/106/84 82/104/83
f 46/105/27 45/107/25 84/108/85 83/106/84
f 45/107/25 44/109/23 85/110/86 84/108/85
f 44/109/23 43/111/21 86/112/87 85/110/86
f 43/111/21 42/113/19 87/114/88 86/112/87
f 42/113/19 41/115/17 88/116/89 87/114/88
f 41/115/17 40/117/15 89/118/90 88/116/89
f 40/117/15 39/119/13 90/120/91 89/118/90
f 39/119/13 38/121/11 91/122/92 90/120/91
f 38/121/11 37/123/9 92/124/93 91/122/92
f 37/123/9 36/125/7 93/126/94 92/124/93
f 36/125/7 35/127/5 94/128/95 93/126/94
f 35/127/5 34/129/3 95/130/96 94/128/95
f 34/129/3 33/67/2 96/70/66 95/130/96
f 95/130/96 96/70/66 97/131/97 98/132/98
f 94/128/95 95/130/96 98/132/98 99/133/99
f 93/126/94 94/128/95 99/133/99 100/134/100
f 92/124/93 93/126/94 100/134/100 101/135/101
f 91/122/92 92/124/93 101/135/101 102/136/102
f 90/120/91 91/122/92 102/136/102 103/137/103
f 89/118/90 90/120/91 103/137/103 104/138/104
f 88/116/89 89/118/90 104/138/104 105/139/105
f 87/114/88 88/116/89 105/139/105 106/140/106
f 86/112/87 87/114/88 106/140/106 107/141/107
f 85/110/86 86/112/87 107/141/107 108/142/108
f 84/108/85 85/110/86 108/142/108 109/143/109
f 83/106/84 84/108/85 109/143/109 110/144/110
f 82/104/83 83/106/84 110/144/110 111/145/111
f 81/102/82 82/104/83 111/145/111 112/146/112
f 80/100/81 81/102/82 112/146/112 113/147/113
f 79/98/80 80/100/81 113/147/113 114/148/114
f 78/96/79 79/98/80 114/148/114 115/149/115
f 77/94/78 78/96/79 115/149/115 116/150/116
f 76/92/77 77/94/78 116/150/116 117/151/117
f 75/90/76 76/92/77 117/151/117 118/152/118
f 74/88/75 75/90/76 118/152/118 119/153/119
f 73/86/74 74/88/75 119/153/119 120/154/120
f 72/84/73 73/86/74 120/154/120 121/155/121
f 71/82/72 72/84/73 121/155/121 122/156/122
f 70/80/71 71/82/72 122/156/122 123/157/123
f 69/78/70 70/80/71 123/157/123 124/158/124
f 68/76/69 69/78/70 124/158/124 125/159/125
f 67/74/68 68/76/69 125/159/125 126/160/126
f 66/72/67 67/74/68 126/160/126 127/161/127
f 65/69/65 66/72/67 127/161/127 128/162/128
f 96/70/66 65/69/65 128/162/128 97/131/97
f 129/163/129 98/132/98 97/131/97
f 129/163/129 99/133/99 98/132/98
f 129/163/129 100/134/100 99/133/99
f 129/163/129 101/135/101 100/134/100
f 129/163/129 102/136/102 101/135/101
f 129/163/129 103/137/103 102/136/102
f 129/163/129 104/138/104 103/137/103
f 129/163/129 105/139/105 104/138/104
f 129/163/129 106/140/106 105/139/105
f 129/163/129 107/141/107 106/140/106
f 129/163/129 108/142/108 107/141/107
f 129/163/129 109/143/109 108/142/108
f 129/163/129 110/144/110 109/143/109
f 129/163/129 111/145/111 110/144/110
f 129/163/129 112/146/112 111/145/111
f 129/163/129 113/147/113 112/146/112
f 129/163/129 114/148/114 113/147/113
f 129/163/129 115/149/115 114/148/114
f 129/163/129 116/150/116 115/149/115
f 129/163/129 117/151/117 116/150/116
f 129/163/129 118/152/118 117/151/117
f 129/163/129 119/153/119 118/152/118
f 129/163/129 120/154/120 119/153/119
f 129/163/129 121/155/121 120/154/120
f 129/163/129 122/156/122 121/155/121
f 129/163/129 123/157/123 122/156/122
f 129/163/129 124/158/124 123/157/123
f 129/163/129 125/159/125 124/158/124
f 129/163/129 126/160/126 125/159/125
f 129/163/129 127/161/127 126/160/126
f 129/163/129 128/162/128 127/161/127
f 129/163/129 97/131/97 128/162/128
